<mxfile host="app.diagrams.net" modified="2024-01-25T19:29:16.642Z" agent="Mozilla/5.0 (Macintosh; Intel Mac OS X 10_15_7) AppleWebKit/537.36 (KHTML, like Gecko) Chrome/120.0.0.0 Safari/537.36" version="22.1.21" etag="0m5LJpNd3i6Is5fS87lq" type="github">
  <diagram name="Page-1" id="xZP488rZPJi2ZdSsPcGa">
    <mxGraphModel>
      <root>
        <mxCell id="0" />
        <mxCell id="1" parent="0" />
      </root>
    </mxGraphModel>
  </diagram>
</mxfile>
